<svg id="visual" viewBox="0 0 900 675" width="900" height="675" xmlns="http://www.w3.org/2000/svg" xmlns:xlink="http://www.w3.org/1999/xlink" version="1.1"><rect x="0" y="0" width="900" height="675" fill="#fafaf8"></rect><defs><linearGradient id="grad1_0" x1="25%" y1="100%" x2="100%" y2="0%"><stop offset="23.333333333333336%" stop-color="#f1ece4" stop-opacity="1"></stop><stop offset="76.66666666666666%" stop-color="#f1ece4" stop-opacity="1"></stop></linearGradient></defs><defs><linearGradient id="grad1_1" x1="25%" y1="100%" x2="100%" y2="0%"><stop offset="23.333333333333336%" stop-color="#f1ece4" stop-opacity="1"></stop><stop offset="76.66666666666666%" stop-color="#fafaf8" stop-opacity="1"></stop></linearGradient></defs><defs><linearGradient id="grad2_0" x1="0%" y1="100%" x2="75%" y2="0%"><stop offset="23.333333333333336%" stop-color="#f1ece4" stop-opacity="1"></stop><stop offset="76.66666666666666%" stop-color="#f1ece4" stop-opacity="1"></stop></linearGradient></defs><defs><linearGradient id="grad2_1" x1="0%" y1="100%" x2="75%" y2="0%"><stop offset="23.333333333333336%" stop-color="#fafaf8" stop-opacity="1"></stop><stop offset="76.66666666666666%" stop-color="#f1ece4" stop-opacity="1"></stop></linearGradient></defs><g transform="translate(900, 675)"><path d="M-506.2 0C-500.4 -68.4 -494.5 -136.9 -466.6 -193.3C-438.6 -249.7 -388.6 -294 -341.5 -341.5C-294.4 -389.1 -250.2 -439.7 -193.7 -467.7C-137.3 -495.7 -68.6 -501 0 -506.2L0 0Z" fill="#f5f3ee"></path><path d="M-253.1 0C-250.2 -34.2 -247.2 -68.4 -233.3 -96.6C-219.3 -124.8 -194.3 -147 -170.8 -170.8C-147.2 -194.5 -125.1 -219.9 -96.9 -233.9C-68.6 -247.8 -34.3 -250.5 0 -253.1L0 0Z" fill="#f1ece4"></path></g><g transform="translate(0, 0)"><path d="M506.3 0C476.7 56.3 447.2 112.5 427.8 177.2C408.3 241.8 398.9 314.8 358 358C317.1 401.1 244.8 414.5 179.9 434.2C115 454 57.5 480.1 0 506.3L0 0Z" fill="#f5f3ee"></path><path d="M253.1 0C238.4 28.1 223.6 56.3 213.9 88.6C204.1 120.9 199.4 157.4 179 179C158.5 200.6 122.4 207.2 89.9 217.1C57.5 227 28.7 240.1 0 253.1L0 0Z" fill="#f1ece4"></path></g></svg>