<svg id="visual" viewBox="0 0 960 540" width="960" height="540" xmlns="http://www.w3.org/2000/svg" xmlns:xlink="http://www.w3.org/1999/xlink" version="1.1"><rect x="0" y="0" width="960" height="540" fill="#Fafaf8"></rect><g transform="translate(-104.10619848655006 289.476892158892)"><path d="M104 -50.7C205.1 -96.8 405.9 -187 537.3 -166.8C668.8 -146.7 730.8 -16.4 721.3 109.2C711.7 234.7 630.6 355.4 539.3 475.7C448.1 596 346.7 715.8 250 653.9C153.4 592 61.3 348.3 -98.6 312.2C-258.5 276 -486.4 447.4 -511.6 434.4C-536.8 421.3 -359.5 223.7 -297.8 94.4C-236 -34.9 -289.9 -96 -271.4 -118.7C-252.8 -141.4 -161.8 -125.8 -104.5 -99.6C-47.2 -73.5 -23.6 -36.7 -11.1 -19.5C1.4 -2.3 2.9 -4.5 104 -50.7" fill="#F1ece4"></path></g></svg>