<svg id="visual" viewBox="0 0 960 540" width="960" height="540" xmlns="http://www.w3.org/2000/svg" xmlns:xlink="http://www.w3.org/1999/xlink" version="1.1"><rect x="0" y="0" width="960" height="540" fill="#Fafaf8"></rect><defs><linearGradient id="grad1_0" x1="43.8%" y1="100%" x2="100%" y2="0%"><stop offset="14.444444444444446%" stop-color="#f1ece4" stop-opacity="1"></stop><stop offset="85.55555555555554%" stop-color="#f1ece4" stop-opacity="1"></stop></linearGradient></defs><defs><linearGradient id="grad1_1" x1="43.8%" y1="100%" x2="100%" y2="0%"><stop offset="14.444444444444446%" stop-color="#f1ece4" stop-opacity="1"></stop><stop offset="85.55555555555554%" stop-color="#fafaf8" stop-opacity="1"></stop></linearGradient></defs><defs><linearGradient id="grad2_0" x1="0%" y1="100%" x2="56.3%" y2="0%"><stop offset="14.444444444444446%" stop-color="#f1ece4" stop-opacity="1"></stop><stop offset="85.55555555555554%" stop-color="#f1ece4" stop-opacity="1"></stop></linearGradient></defs><defs><linearGradient id="grad2_1" x1="0%" y1="100%" x2="56.3%" y2="0%"><stop offset="14.444444444444446%" stop-color="#fafaf8" stop-opacity="1"></stop><stop offset="85.55555555555554%" stop-color="#f1ece4" stop-opacity="1"></stop></linearGradient></defs><g transform="translate(960, 540)"><path d="M-486 0C-463.6 -58.4 -441.2 -116.9 -417.6 -173C-394 -229.1 -369.3 -282.9 -331.6 -331.6C-294 -380.4 -243.4 -424.1 -186 -449C-128.6 -473.9 -64.3 -479.9 0 -486L0 0Z" fill="#f5f3ee"></path><path d="M-243 0C-231.8 -29.2 -220.6 -58.4 -208.8 -86.5C-197 -114.5 -184.6 -141.4 -165.8 -165.8C-147 -190.2 -121.7 -212.1 -93 -224.5C-64.3 -236.9 -32.1 -240 0 -243L0 0Z" fill="#f1ece4"></path></g><g transform="translate(0, 0)"><path d="M486 0C485.3 68.7 484.6 137.4 449 186C413.5 234.5 343.1 262.9 289.9 289.9C236.8 316.9 200.8 342.6 155.4 375.1C109.9 407.6 55 446.8 0 486L0 0Z" fill="#f5f3ee"></path><path d="M243 0C242.6 34.4 242.3 68.7 224.5 93C206.7 117.3 171.5 131.4 145 145C118.4 158.5 100.4 171.3 77.7 187.5C55 203.8 27.5 223.4 0 243L0 0Z" fill="#f1ece4"></path></g></svg>