<svg id="visual" viewBox="0 0 900 675" width="900" height="675" xmlns="http://www.w3.org/2000/svg" xmlns:xlink="http://www.w3.org/1999/xlink" version="1.1"><rect x="0" y="0" width="900" height="675" fill="#fafaf8"></rect><defs><linearGradient id="grad1_0" x1="25%" y1="0%" x2="100%" y2="100%"><stop offset="23.333333333333336%" stop-color="#f1ece4" stop-opacity="1"></stop><stop offset="76.66666666666666%" stop-color="#f1ece4" stop-opacity="1"></stop></linearGradient></defs><defs><linearGradient id="grad1_1" x1="25%" y1="0%" x2="100%" y2="100%"><stop offset="23.333333333333336%" stop-color="#f1ece4" stop-opacity="1"></stop><stop offset="76.66666666666666%" stop-color="#fafaf8" stop-opacity="1"></stop></linearGradient></defs><defs><linearGradient id="grad2_0" x1="0%" y1="0%" x2="75%" y2="100%"><stop offset="23.333333333333336%" stop-color="#f1ece4" stop-opacity="1"></stop><stop offset="76.66666666666666%" stop-color="#f1ece4" stop-opacity="1"></stop></linearGradient></defs><defs><linearGradient id="grad2_1" x1="0%" y1="0%" x2="75%" y2="100%"><stop offset="23.333333333333336%" stop-color="#fafaf8" stop-opacity="1"></stop><stop offset="76.66666666666666%" stop-color="#f1ece4" stop-opacity="1"></stop></linearGradient></defs><g transform="translate(900, 0)"><path d="M0 506.3C-68.4 500.4 -136.9 494.5 -193.3 466.6C-249.7 438.6 -294 388.6 -341.5 341.5C-389.1 294.4 -439.7 250.2 -467.7 193.7C-495.7 137.3 -501 68.6 -506.2 0L0 0Z" fill="#f5f3ee"></path><path d="M0 253.1C-34.2 250.2 -68.4 247.2 -96.6 233.3C-124.8 219.3 -147 194.3 -170.8 170.8C-194.5 147.2 -219.9 125.1 -233.9 96.9C-247.8 68.6 -250.5 34.3 -253.1 0L0 0Z" fill="#f1ece4"></path></g><g transform="translate(0, 675)"><path d="M0 -506.2C56.3 -476.7 112.5 -447.2 177.2 -427.8C241.8 -408.3 314.8 -398.9 358 -358C401.1 -317.1 414.5 -244.8 434.2 -179.9C454 -115 480.1 -57.5 506.3 0L0 0Z" fill="#f5f3ee"></path><path d="M0 -253.1C28.1 -238.4 56.3 -223.6 88.6 -213.9C120.9 -204.1 157.4 -199.4 179 -179C200.6 -158.5 207.2 -122.4 217.1 -89.9C227 -57.5 240.1 -28.7 253.1 0L0 0Z" fill="#f1ece4"></path></g></svg>