<svg id="visual" viewBox="0 0 960 200" width="960" height="200" xmlns="http://www.w3.org/2000/svg" xmlns:xlink="http://www.w3.org/1999/xlink" version="1.1"><path d="M0 73L32 69.7C64 66.3 128 59.7 192 62C256 64.3 320 75.7 384 79.7C448 83.7 512 80.3 576 77.7C640 75 704 73 768 75C832 77 896 83 928 86L960 89L960 0L928 0C896 0 832 0 768 0C704 0 640 0 576 0C512 0 448 0 384 0C320 0 256 0 192 0C128 0 64 0 32 0L0 0Z" fill="#f8f7f4"></path><path d="M0 95L32 93C64 91 128 87 192 90C256 93 320 103 384 105.3C448 107.7 512 102.3 576 98C640 93.7 704 90.3 768 93.3C832 96.3 896 105.7 928 110.3L960 115L960 87L928 84C896 81 832 75 768 73C704 71 640 73 576 75.7C512 78.3 448 81.7 384 77.7C320 73.7 256 62.3 192 60C128 57.7 64 64.3 32 67.7L0 71Z" fill="#edeae0"></path><path d="M0 159L32 162.3C64 165.7 128 172.3 192 169.3C256 166.3 320 153.7 384 147.3C448 141 512 141 576 140.3C640 139.7 704 138.3 768 140.3C832 142.3 896 147.7 928 150.3L960 153L960 113L928 108.3C896 103.7 832 94.3 768 91.3C704 88.3 640 91.7 576 96C512 100.3 448 105.7 384 103.3C320 101 256 91 192 88C128 85 64 89 32 91L0 93Z" fill="#edeae0"></path><path d="M0 201L32 201C64 201 128 201 192 201C256 201 320 201 384 201C448 201 512 201 576 201C640 201 704 201 768 201C832 201 896 201 928 201L960 201L960 151L928 148.3C896 145.7 832 140.3 768 138.3C704 136.3 640 137.7 576 138.3C512 139 448 139 384 145.3C320 151.7 256 164.3 192 167.3C128 170.3 64 163.7 32 160.3L0 157Z" fill="#f8f7f4"></path></svg>